<?xml version="1.0" encoding="utf-8"?>
<!-- Generator: Adobe Illustrator 18.1.0, SVG Export Plug-In . SVG Version: 6.00 Build 0)  -->
<svg version="1.1" id="图层_1" xmlns="http://www.w3.org/2000/svg" xmlns:xlink="http://www.w3.org/1999/xlink" x="0px" y="0px"
	 viewBox="-197 -70 200 200" enable-background="new -197 -70 200 200" xml:space="preserve">
<g>
	<g transform="scale(0.1953125, 0.1953125)">
		<path fill="#AAAAAA" d="M-403.6,421.1c-6.4-4.4-17.6-11-42.8-11H-730c-84.8,0-157.6-63.8-157.6-144.6V19.2h-4.4
			c-64.3,0-112.9,50.1-112.9,111.2v314.9c0,61.1,52.3,99.2,116.5,99.2h39.8v117.3l129.7-109.9c4.6-3.4,12.9-7.3,32.2-7.3h219.4
			c56.2,0,115.8-27.9,126.8-78.2L-403.6,421.1z M-142.4-354.6h-530.9c-84.8,0-136.1,65.5-136.1,146.1v170.3v240.6
			c0,80.9,68.4,146.6,153.2,146.6h247c25.4,0,36.6,5.6,42.8,10.3l182.5,146.1V349h41.5c85,0,153.9-65.7,153.9-146.3v-411.2
			C11.5-289.1-57.4-354.6-142.4-354.6z"/>
	</g>
</g>
</svg>
