<?xml version="1.0" encoding="utf-8"?>
<!-- Generator: Adobe Illustrator 18.1.0, SVG Export Plug-In . SVG Version: 6.00 Build 0)  -->
<svg version="1.1" id="图层_1" xmlns="http://www.w3.org/2000/svg" xmlns:xlink="http://www.w3.org/1999/xlink" x="0px" y="0px"
	 viewBox="-197 -70 200 200" enable-background="new -197 -70 200 200" xml:space="preserve">
<g>
	<g transform="scale(0.1953125, 0.1953125)">
		<path fill="#AAAAAA" d="M7.9,154.1C-111.7,16.3-277-142.1-496.6-142.1c-88.7,0-170,25.1-255.8,78.7C-824.8-18-899,45.9-1000.9,151
			l-2.6,2.6l17.7,18.2c145.5,148.9,271.1,277.5,489.2,277.5c96.4,0,189.8-31.4,285.6-96.1C-129.4,298-60,228-4.3,171.6L10.2,157
			L7.9,154.1z M-496.6,364.8c-116.4,0-211.2-94.8-211.2-211.2s94.8-211.2,211.2-211.2s211.2,94.8,211.2,211.2
			S-380.2,364.8-496.6,364.8z M-511.4,76.5c0-18.2,5.3-35.4,14.5-49.6c-70,0-126.5,57-126.5,127.2s56.8,127,126.5,127
			s126.7-56.8,126.7-127l0,0c-14.3,9.2-31.4,14.5-49.6,14.5C-470.2,168.4-511.4,127.2-511.4,76.5z"/>
	</g>
</g>
</svg>
