<?xml version="1.0" encoding="utf-8"?>
<!-- Generator: Adobe Illustrator 18.1.0, SVG Export Plug-In . SVG Version: 6.00 Build 0)  -->
<svg version="1.1" id="图层_1" xmlns="http://www.w3.org/2000/svg" xmlns:xlink="http://www.w3.org/1999/xlink" x="0px" y="0px"
	 viewBox="-197 -70 200 200" enable-background="new -197 -70 200 200" xml:space="preserve">
<g>
	<g transform="scale(0.1953125, 0.1953125)">
		<path fill="#AAAAAA" d="M-588-91.3h517c45.2,0,81.7-36.6,81.7-81.8s-36.6-81.7-81.7-81.7h-517c-45.2,0-81.8,36.6-81.8,81.7
			S-633.1-91.3-588-91.3z M-825.9-254.8h-98c-45.2,0-81.8,36.6-81.8,81.7s36.6,81.8,81.8,81.8h98c45.2,0,81.8-36.6,81.8-81.8
			S-780.7-254.8-825.9-254.8z M-71,72.2h-517c-45.2,0-81.8,36.6-81.8,81.7c0,45.1,36.6,81.8,81.8,81.8h517
			c45.2,0,81.7-36.6,81.7-81.8C10.8,108.8-25.8,72.2-71,72.2z M-825.9,72.2h-98c-45.2,0-81.8,36.6-81.8,81.7
			c0,45.1,36.6,81.8,81.8,81.8h98c45.2,0,81.8-36.6,81.8-81.8C-744.1,108.8-780.7,72.2-825.9,72.2z M-71,399.2h-517
			c-45.2,0-81.8,36.6-81.8,81.8c0,45.2,36.6,81.8,81.8,81.8h517c45.2,0,81.7-36.6,81.7-81.8C10.8,435.8-25.8,399.2-71,399.2z
			 M-825.9,399.2h-98c-45.2,0-81.8,36.6-81.8,81.8c0,45.2,36.6,81.8,81.8,81.8h98c45.2,0,81.8-36.6,81.8-81.8
			C-744.1,435.8-780.7,399.2-825.9,399.2z"/>
	</g>
</g>
</svg>
