<?xml version="1.0" encoding="utf-8"?>
<!-- Generator: Adobe Illustrator 18.1.0, SVG Export Plug-In . SVG Version: 6.00 Build 0)  -->
<svg version="1.1" id="图层_1" xmlns="http://www.w3.org/2000/svg" xmlns:xlink="http://www.w3.org/1999/xlink" x="0px" y="0px"
	 viewBox="0 0 120 40" enable-background="new 0 0 120 40" xml:space="preserve">
<g>
	<path fill="#313439" d="M0,36.5c2.2-3.8,5-11.3,6.8-17.7C6.9,26,4.8,35.1,2.7,40L0,36.5z M6.1,14.1c1.5,3.7-2.4,4.7-3.2,1.3
		c-0.6-3.1-2-6.3-2-6.3C3,9.9,5.4,12.2,6.1,14.1z M7.1,4.8c1.4,3.4-2.6,4.6-3.3,1.4c-0.7-3-1.9-6-1.9-6C3.8,0.9,6.2,2.8,7.1,4.8z
		 M8.5,18.9h7v-5.1l4.7,0.9l-1.3,0.6v3.6h4.4l1.2-1c0.1-0.1,0.2-0.2,0.4-0.1c0.1,0,0.2,0.1,0.3,0.3l1.6,2.9c0.1,0.2,0.1,0.4,0,0.6
		c-0.1,0.2-0.3,0.2-0.5,0.2h-6.6c2,4.7,5.1,9.4,8.1,12.1c-1.4,0.6-2.3,1.7-2.6,3.8c-2.6-3.1-4.9-7.8-6.2-12.9v14.3l-3.4,0.8V26.1
		C13.5,30.2,8.9,35.5,5,37.6c3.8-4.9,6.9-10.2,9.1-15.9H9.3L8.5,18.9z M7.7,8.6l4-7.5c0,0.7,0,1.3,0,1.9h11.5l0.1-1.2L27,3.1
		c-1.3,2.8-2.6,5-4.5,7.2L23,5.9H11.6c-0.1,1.7-0.4,3.4-0.8,4.8L7.7,8.6z M17.8,10.4l-1.4,0.1c-2.2,3.2-4.7,5.5-7,6.7
		c1.7-3,3.1-6.2,4.5-9.4L17.8,10.4z M25,13.5c1.5,3.1-2.1,4.5-3.2,1.6c-0.9-2.4-1.8-4.3-3.1-6.3C21.5,9.8,24.2,11.8,25,13.5z"/>
	<path fill="#313439" d="M51.5,37.3H36.7v1.4l-3.4,0.8V8.2l4.7,1l-1.3,0.6v24.7h5.7V0.2l4.7,0.9l-1.3,0.6v32.8h5.6V8.2l4.7,1
		l-1.3,0.6v28.9l-3.4,0.8V37.3z"/>
	<path fill="#313439" d="M88,6.9l-1.6-0.2c-1.7,2.7-3.7,5.6-6.1,8.4h5.3l1.2-1.1c0.1,0,0.2-0.1,0.4-0.1c0.1,0,0.3,0.1,0.3,0.2l1.6,3
		c0.1,0.1,0.1,0.4,0,0.5c-0.1,0.2-0.3,0.3-0.5,0.3H77.9c-1.9,2.1-3.9,4-6,5.8v6.6c3.9-2.6,7.8-5.7,10.6-8.7l2.9,4l-1.7-0.2
		c-3,2.1-8,4.6-11.8,6.1v2.9c0,1.2,0.3,2.1,1.7,2.1H82c2.4,0,2.7-2.9,3.2-5.6l0.6,0c-0.2,0.9-0.6,3.7,1.9,4.5
		c-0.1,2-0.7,4.1-4.5,4.1H72.6c-2.3,0-4.1-1.2-4.1-4v-9.2c-2.2,1.5-4.5,2.7-6.8,3.5c2.3-1.7,4.6-3.5,6.8-5.6v-3.9l3.3,0.6
		c0.9-1,1.8-1.9,2.7-3H62.5l-0.8-2.8h10.4V8.5h-6.4l-0.8-2.8h7.2V0l4.7,1l-1.3,0.5v4.2h4l1.2-1.1c0.1-0.1,0.2-0.1,0.4-0.1
		c0.1,0,0.2,0.1,0.3,0.2l1.1,2.1c0.7-1,1.3-2.1,1.9-3.2L88,6.9z M81.3,8.5h-5.8v6.6h1.2C78.2,13.1,79.8,10.9,81.3,8.5z"/>
	<path fill="#313439" d="M92.5,9h5.1V0l4.9,0.9L101,1.4V9h1.1l1.2-1c0-0.1,0.2-0.2,0.4-0.1c0.1,0,0.2,0.1,0.3,0.2l1.6,2.9
		c0.1,0.2,0,0.4,0,0.6c0,0.1-0.3,0.2-0.5,0.2H101v1.4c1.9,2.7,3.4,5.3,4.1,7.5c1.4,3.8-2.7,4.5-3,1.4c-0.3-2-0.7-4.6-1.1-6.8v23.8
		l-3.4,0.8V17.4c-1.3,5.5-3.2,10.3-5.3,14.8c1.3-6.7,2.2-13.5,3-20.3h-2.1L92.5,9z M105.9,9h4.6V0l4.9,0.9l-1.5,0.6V9h1.9l1.2-1
		c0-0.1,0.2-0.2,0.4-0.1c0.1,0,0.2,0.1,0.2,0.2l1.6,3c0.1,0.2,0.1,0.4,0,0.6c-0.1,0.1-0.3,0.2-0.5,0.2h-4.1
		c1.5,7.8,2.7,12.4,5.4,18.6c-1.4,0.2-2.4,1.4-2.9,3.2c-1.6-4.7-2.8-12.9-3.3-18.9v24.4l-3.4,0.8V19.1c-1.8,6.5-4.5,11.5-6.9,15.4
		c2.4-7.2,4-14.8,5.1-22.7h-2L105.9,9z"/>
</g>
</svg>