<?xml version="1.0" encoding="utf-8"?>
<!-- Generator: Adobe Illustrator 18.1.0, SVG Export Plug-In . SVG Version: 6.00 Build 0)  -->
<svg version="1.1" id="图层_1" xmlns="http://www.w3.org/2000/svg" xmlns:xlink="http://www.w3.org/1999/xlink" x="0px" y="0px"
	 viewBox="-197 -70 200 200" enable-background="new -197 -70 200 200" xml:space="preserve">
<g>
	<g transform="scale(0.1953125, 0.1953125)">
		<path fill="#AAAAAA" d="M-495.8-343.7c-274.9,0-498.5,223.6-498.5,498.3c0,274.8,223.6,498.3,498.5,498.3
			C-221,652.9,2.6,429.4,2.6,154.6C2.6-120.1-221-343.7-495.8-343.7z M-495.8,561.3c-224.3,0-406.8-182.4-406.8-406.7
			c0-224.2,182.5-406.7,406.8-406.7c224.2,0,406.7,182.4,406.7,406.7S-271.5,561.3-495.8,561.3L-495.8,561.3z M-259.4,278.1
			L-450,154.4V-95.7c0-25.3-20.5-45.9-45.8-45.9s-45.9,20.5-45.9,45.9v299.9L-309.3,355c7.8,5,16.4,7.4,24.9,7.4
			c15,0,29.8-7.3,38.5-20.9C-232.1,320.2-238.2,291.9-259.4,278.1L-259.4,278.1z"/>
	</g>
</g>
</svg>
